# xmcd
#
# Track frame offsets:
#   150
#   14962
#   31370
#   53275
#   67385
#   87212
#   101750
#   117275
#   134410
#   151470
#   167735
#   181725
#   205750
#   234450
#
# Disc length: 3546 seconds
#
# Revision: 3
# Processed by: cddbd v1.5.2PL0 Copyright (c) Steve Scherf et al.
# Submitted via: Media_Universe 3.0
#
DISCID=be0dd80e
DTITLE=Grant and Forsyth - Grant and Forsyth - The Best Of Country Love Songs
DYEAR=1993
DGENRE=Country
TTITLE0=Grant and Forsyth - Sometimes When We Touch
TTITLE1=Grant and Forsyth - To Know You Is To Love You
TTITLE2=Grant and Forsyth - I'll Still Be Loving You
TTITLE3=Grant and Forsyth - Only A Fool (Breaks His Own Heart)
TTITLE4=Grant and Forsyth - Do That To Me One More Time
TTITLE5=Grant and Forsyth - Driving My Life Away
TTITLE6=Grant and Forsyth - He's Out Of My Life
TTITLE7=Grant and Forsyth - Stay
TTITLE8=Grant and Forsyth - I Am, I Said
TTITLE9=Grant and Forsyth - Without You
TTITLE10=Grant and Forsyth - Talking In Your Sleep
TTITLE11=Grant and Forsyth - (When You Were) Sweet Sixteen
TTITLE12=Grant and Forsyth - Medley (The Letter, Lay Back In The Arms Of Someone,  Achy Breaky Heart, Thank God I'm A Country Girl)
TTITLE13=Grant and Forsyth - Medley (You're So Vain, Sealed With A Kiss, To Be With You, When I Need You)
EXTD=
EXTT0=
EXTT1=
EXTT2=
EXTT3=
EXTT4=
EXTT5=
EXTT6=
EXTT7=
EXTT8=
EXTT9=
EXTT10=
EXTT11=
EXTT12=
EXTT13=
PLAYORDER=
